<svg width="277" height="300" xmlns="http://www.w3.org/2000/svg">
 <!-- Created with Method Draw - http://github.com/duopixel/Method-Draw/ -->

 <g>
  <title>background</title>
  <rect fill="none" id="canvas_background" height="302" width="279" y="-1" x="-1"/>
  <g display="none" overflow="visible" y="0" x="0" height="100%" width="100%" id="canvasGrid">
   <rect fill="url(#gridpattern)" stroke-width="0" y="0" x="0" height="100%" width="100%"/>
  </g>
 </g>
 <g>
  <title>Layer 1</title>
  <g id="svg_7">
   <g transform="matrix(4.340277446640869,0,0,4.340277446640869,0,0) " id="svg_4" fill="#ffffff">
    <path id="svg_5" d="m62.5648,27.553399l-8,-2l0,-5.219c0,-1.654 -1.346,-3 -3,-3s-3,1.346 -3,3l0,3.719l-2,-0.5l0,-4.219l-2,0l0,3.719l-2.705,-0.676c-0.986,-3.383 -2.987,-6.404 -5.857,-8.637l-1.438,-1.117l0,-2.289l5,0c1.654,0 3,-1.346 3,-3s-1.346,-3 -3,-3l-5,0l0,-1c0,-1.654 -1.346,-3 -3,-3s-3,1.346 -3,3l0,1l-5,0c-1.654,0 -3,1.346 -3,3s1.346,3 3,3l5.001,0l0,2.288l-1.438,1.118c-2.87,2.232 -4.872,5.253 -5.857,8.637l-2.706,0.676l0,-3.719l-2,0l0,4.219l-2,0.5l0,-3.719c0,-1.654 -1.346,-3 -3,-3s-3,1.346 -3,3l0,5.219l-8,2l0,5.781l8,0l0,4l6,0l0,-4l2,0l0,2l2,0l0,-2l2,0l0,1.958c0,4.419 1.043,8.714 3.003,12.577l-13.003,8.939l0,4.707l16.022,-2.671c0.113,1.941 1.713,3.49 3.682,3.49l2.594,0c1.969,0 3.569,-1.549 3.682,-3.49l16.02,2.671l0,-4.707l-13.003,-8.939c1.96,-3.863 3.003,-8.158 3.003,-12.577l0,-1.958l2,0l0,2l2,0l0,-2l2,0l0,4l6,0l0,-4l8,0l0,-5.781zm-11,-8.219c0.552,0 1,0.449 1,1l0,1l-2,0l0,-1c0,-0.551 0.448,-1 1,-1zm-1,4l2,0l0,1.719l-2,-0.5l0,-1.219zm-11,-17c0.552,0 1,0.449 1,1s-0.448,1 -1,1l-5,0l0,-2l5,0zm-8,-4c0.552,0 1,0.449 1,1l0,8l-1.999,0l-0.001,-8c0,-0.551 0.448,-1 1,-1zm-8,6c-0.552,0 -1,-0.449 -1,-1s0.448,-1 1,-1l5,0l0,2l-5,0zm4.791,6.985l2.552,-1.985l1.314,0l2.552,1.985c1.768,1.375 3.163,3.091 4.146,5.015l-14.71,0c0.983,-1.923 2.378,-3.64 4.146,-5.015zm-16.791,4.015c0.552,0 1,0.449 1,1l0,1l-2,0l0,-1c0,-0.551 0.448,-1 1,-1zm-1,4l2,0l0,1.219l-2,0.5l0,-1.719zm2,12l-2,0l0,-2l2,0l0,2zm-10,-4l0,-2.219l18.221,-4.555c-0.131,0.853 -0.221,1.718 -0.221,2.599l0,4.175l-18,0zm10,26.526l11.98,-8.236c0.872,1.448 1.881,2.822 3.019,4.106l-0.675,3.036l-14.324,2.387l0,-1.293zm20.297,2.474l-2.594,0c-0.939,0 -1.703,-0.764 -1.703,-1.703c0,-0.124 0.014,-0.249 0.041,-0.37l1.502,-6.758c0.152,-0.689 0.752,-1.169 1.457,-1.169s1.305,0.48 1.457,1.169l1.502,6.758c0.027,0.121 0.041,0.246 0.041,0.37c0,0.939 -0.764,1.703 -1.703,1.703zm17.703,-2.474l0,1.293l-14.324,-2.387l-0.675,-3.036c1.138,-1.284 2.147,-2.658 3.019,-4.106l11.98,8.236zm-10,-22.568c0,5.833 -1.966,11.423 -5.548,15.965l-0.042,-0.187c-0.357,-1.611 -1.76,-2.736 -3.41,-2.736s-3.053,1.125 -3.41,2.735l-0.042,0.187c-3.582,-4.541 -5.548,-10.131 -5.548,-15.964l0,-8.133c0,-1.671 0.282,-3.294 0.799,-4.825l16.402,0c0.517,1.531 0.799,3.154 0.799,4.825l0,8.133zm12,0.042l-2,0l0,-2l2,0l0,2zm8,-4l-18,0l0,-4.175c0,-0.882 -0.09,-1.746 -0.221,-2.6l18.221,4.556l0,2.219z"/>
    <path id="svg_6" d="m31.5648,26.334399c-2.757,0 -5,2.243 -5,5l0,8c0,2.757 2.243,5 5,5s5,-2.243 5,-5l0,-8c0,-2.757 -2.243,-5 -5,-5zm3,13c0,1.654 -1.346,3 -3,3s-3,-1.346 -3,-3l0,-8c0,-1.654 1.346,-3 3,-3s3,1.346 3,3l0,8z"/>
   </g>
  </g>
 </g>
</svg>