<svg xmlns="http://www.w3.org/2000/svg" xmlns:xlink="http://www.w3.org/1999/xlink" version="1.1" x="0px" y="0px"
     viewBox="0 0 64 64" style="enable-background:new 0 0 64 64;" xml:space="preserve">
    <g fill="#ffffff">
        <path d="M63,28.219l-8-2V21c0-1.654-1.346-3-3-3s-3,1.346-3,3v3.719l-2-0.5V20h-2v3.719l-2.705-0.676   c-0.986-3.383-2.987-6.404-5.857-8.637L35,13.289V11h5c1.654,0,3-1.346,3-3s-1.346-3-3-3h-5V4c0-1.654-1.346-3-3-3s-3,1.346-3,3   l0,1h-5c-1.654,0-3,1.346-3,3s1.346,3,3,3h5.001l0,2.288l-1.438,1.118c-2.87,2.232-4.872,5.253-5.857,8.637L19,23.719V20h-2v4.219   l-2,0.5V21c0-1.654-1.346-3-3-3s-3,1.346-3,3v5.219l-8,2V34h8v4h6v-4h2v2h2v-2h2v1.958c0,4.419,1.043,8.714,3.003,12.577L11,57.474   v4.707l16.022-2.671c0.113,1.941,1.713,3.49,3.682,3.49h2.594c1.969,0,3.569-1.549,3.682-3.49L53,62.181v-4.707l-13.003-8.939   C41.957,44.672,43,40.377,43,35.958V34h2v2h2v-2h2v4h6v-4h8V28.219z M52,20c0.552,0,1,0.449,1,1v1h-2v-1C51,20.449,51.448,20,52,20   z M51,24h2v1.719l-2-0.5V24z M40,7c0.552,0,1,0.449,1,1s-0.448,1-1,1h-5V7H40z M32,3c0.552,0,1,0.449,1,1v8h-1.999L31,4   C31,3.449,31.448,3,32,3z M24,9c-0.552,0-1-0.449-1-1s0.448-1,1-1h5l0,2H24z M28.791,15.985L31.343,14h1.314l2.552,1.985   c1.768,1.375,3.163,3.091,4.146,5.015H24.645C25.628,19.077,27.023,17.36,28.791,15.985z M12,20c0.552,0,1,0.449,1,1v1h-2v-1   C11,20.449,11.448,20,12,20z M11,24h2v1.219l-2,0.5V24z M13,36h-2v-2h2V36z M3,32v-2.219l18.221-4.555   C21.09,26.079,21,26.944,21,27.825V32H3z M13,58.526l11.98-8.236c0.872,1.448,1.881,2.822,3.019,4.106l-0.675,3.036L13,59.819   V58.526z M33.297,61h-2.594C29.764,61,29,60.236,29,59.297c0-0.124,0.014-0.249,0.041-0.37l1.502-6.758   C30.695,51.48,31.295,51,32,51s1.305,0.48,1.457,1.169l1.502,6.758C34.986,59.048,35,59.173,35,59.297   C35,60.236,34.236,61,33.297,61z M51,58.526v1.293l-14.324-2.387l-0.675-3.036c1.138-1.284,2.147-2.658,3.019-4.106L51,58.526z    M41,35.958c0,5.833-1.966,11.423-5.548,15.965l-0.042-0.187C35.053,50.125,33.65,49,32,49s-3.053,1.125-3.41,2.735l-0.042,0.187   C24.966,47.381,23,41.791,23,35.958v-8.133c0-1.671,0.282-3.294,0.799-4.825h16.402C40.718,24.531,41,26.154,41,27.825V35.958z    M53,36h-2v-2h2V36z M61,32H43v-4.175c0-0.882-0.09-1.746-0.221-2.6L61,29.781V32z"/>
        <path d="M32,27c-2.757,0-5,2.243-5,5v8c0,2.757,2.243,5,5,5s5-2.243,5-5v-8C37,29.243,34.757,27,32,27z M35,40c0,1.654-1.346,3-3,3   s-3-1.346-3-3v-8c0-1.654,1.346-3,3-3s3,1.346,3,3V40z"/>
    </g>
</svg>