<svg width="640" height="270" xmlns="http://www.w3.org/2000/svg">
 <g>
  <title>Layer 1</title>
  <g stroke="null" id="svg_1" fill="#ffffff">
   <path stroke="null" id="svg_2" d="m1.999999,154.127967c54.067586,45.406316 180.671891,75.601555 318.945012,75.601555s264.877425,-30.203064 318.945012,-75.601555c-36.548785,-30.727314 -106.491568,-55.038432 -193.742834,-67.205729c-29.421304,15.45364 -76.003089,24.647578 -125.202178,24.647578s-95.780873,-9.193938 -125.202178,-24.639753c-87.251266,12.159472 -157.201839,36.48624 -193.742834,67.197904z"/>
   <path stroke="null" id="svg_3" d="m308.022071,72.681416c0,7.175184 5.78767,12.988882 12.92294,12.988882s12.92294,-5.813699 12.92294,-12.988882s-5.78767,-12.981058 -12.92294,-12.981058s-12.92294,5.813699 -12.92294,12.981058zm48.420129,-2.629075c0,6.877848 5.234609,12.456808 11.692184,12.456808c6.449786,0 11.684394,-5.57896 11.684394,-12.456808s-5.234609,-12.456808 -11.684394,-12.456808c-6.457575,0 -11.692184,5.57896 -11.692184,12.456808zm44.759019,-7.887225c0.77117,6.251878 5.413769,10.82146 10.391321,10.211139c4.977552,-0.610321 8.381605,-6.181456 7.626015,-12.433334c-0.77117,-6.251878 -5.413769,-10.82146 -10.391321,-10.211139c-4.977552,0.610321 -8.389395,6.173631 -7.626015,12.433334zm-139.542824,7.887225c0,6.877848 5.234609,12.456808 11.684394,12.456808c6.457575,0 11.692184,-5.57896 11.692184,-12.456808s-5.234609,-12.456808 -11.692184,-12.456808c-6.449786,0 -11.684394,5.57896 -11.684394,12.456808zm-21.382441,-7.887225c0.76338,-6.251878 -2.648463,-11.823013 -7.626015,-12.433334c-4.969762,-0.618146 -9.620151,3.959262 -10.383532,10.211139c-0.77117,6.251878 2.648463,11.823013 7.618225,12.433334c4.969762,0.610321 9.620151,-3.967086 10.391321,-10.211139zm-42.03266,12.300315c7.999915,-41.462703 60.081155,-73.465431 123.137935,-73.465431c63.041201,0 115.099072,31.979254 123.130145,73.418483l-0.623168,-0.086071l-1.74487,0.954605c-27.614118,15.101532 -72.926199,24.123328 -121.198325,24.123328s-93.584207,-9.013971 -121.198325,-24.115503l-1.503392,-0.829411z"/>
   <path stroke="null" id="svg_4" d="m414.264372,237.405482c-22.745621,17.44892 -55.937089,28.442522 -92.890933,28.442522c-36.883737,0 -70.01289,-10.946654 -92.75851,-28.340802c29.584886,2.871638 60.54853,4.389616 92.330082,4.389616c32.132084,-0.007825 63.44626,-1.549276 93.319361,-4.491336z" clip-rule="evenodd" fill-rule="evenodd"/>
  </g>
 </g>
</svg>